<svg xmlns="http://www.w3.org/2000/svg" viewBox="0 0 64 64">
  <rect width="64" height="64" rx="12" fill="#ffffff"/>
  <g fill="#0b2c5f">
    <path d="M35 7l7 3-7 15-7-3z"/>
    <path d="M31 6l8 4-1.5 3.5-8-4z"/>
    <path d="M28 21l10 5-2 4-10-5z"/>
    <circle cx="39" cy="25" r="5.2"/>
    <circle cx="39" cy="25" r="2.4" fill="#ffffff"/>
    <path d="M29 20c8 2 15 9 15 20 0 8-4 14-10 17l3 3c10-3 16-11 16-22 0-10-6-18-16-23z"/>
    <rect x="16" y="37" width="18" height="4" rx="2"/>
    <path d="M31 50c3 0 5 2 5 5v1H26v-1c0-3 2-5 5-5z"/>
    <path d="M24 56c-3 2-5 5-6 8h26c-1-3-3-6-6-8z"/>
  </g>
</svg>
